<svg xmlns="http://www.w3.org/2000/svg" xmlns:xlink="http://www.w3.org/1999/xlink" version="1.1" style="enable-background:new 0 0 445.049 445.049;" xml:space="preserve" width="445.04901123046875" height="445.04901123046875"><rect id="backgroundrect" width="100%" height="100%" x="0" y="0" fill="none" stroke="none"/>
















<g class="currentLayer" style=""><title>Layer 1</title><path id="XMLID_176_" d="M57.40790090036392,71.74619819927216 c-3.3930000000000002,-3.632 -3.2,-9.327 0.43300000000000005,-12.72 l26.938,-25.166 c2.619,-2.447 6.44,-3.106 9.729,-1.6790000000000003 c3.2880000000000003,1.428 5.415,4.67 5.415,8.255 v70.863 c0,4.971 -4.029,9 -9,9 s-9,-4.029 -9,-9 V61.16119819927216 L70.12890090036392,72.17819819927216 C66.49590090036392,75.57219819927215 60.80090090036392,75.37919819927215 57.40790090036392,71.74619819927216 zM438.43390090036394,7.198198199272156 v170.012 c0,4.971 -4.029,9 -9,9 s-9,-4.029 -9,-9 v-23.673000000000002 H301.0939009003639 v119.338 h25.329 c4.971,0 9,4.029 9,9 s-4.029,9 -9,9 h-25.329 v119.338 h25.329 c4.971,0 9,4.029 9,9 s-4.029,9 -9,9 h-34.138 c-0.06300000000000001,0.0010000000000000002 -0.127,0.0020000000000000005 -0.19100000000000003,0.0020000000000000005 c-0.06300000000000001,0 -0.127,-0.0010000000000000002 -0.19100000000000003,-0.0020000000000000005 H154.94890090036392 c-0.125,0.003000000000000001 -0.254,0.003000000000000001 -0.38200000000000006,0 H17.44690090036392 c-4.97,0 -9,-4.029 -9,-8.999 L8.436900900363922,282.47819819927213 c-0.013000000000000003,-0.2 -0.020000000000000004,-0.4 -0.020000000000000004,-0.6040000000000001 c0,-0.202 0.007000000000000002,-0.402 0.020000000000000004,-0.6020000000000001 l-0.010000000000000002,-136.31 c-0.006000000000000002,-0.14200000000000002 -0.010000000000000002,-0.28300000000000003 -0.010000000000000002,-0.42700000000000005 c0,-0.14300000000000002 0.003000000000000001,-0.28400000000000003 0.010000000000000002,-0.42600000000000005 L8.416900900363922,7.199198199272155 c0,-2.388 0.9480000000000001,-4.6770000000000005 2.636,-6.364 C12.740900900363922,-0.8538018007278442 15.029900900363922,-1.8018018007278442 17.41690090036392,-1.8018018007278442 h412.017 C434.4039009003639,-1.8018018007278442 438.43390090036394,2.2271981992721557 438.43390090036394,7.198198199272156 zM145.75790090036392,290.8751981992722 H26.43790090036392 l0.009000000000000003,119.338 h119.312 V290.8751981992722 zM145.75790090036392,153.53719819927215 H26.427900900363923 l0.008000000000000002,119.338 h119.322 V153.53719819927215 zM145.75790090036392,16.198198199272156 H26.41790090036392 l0.009000000000000003,119.339 h119.332 V16.198198199272156 zM283.0939009003639,290.8751981992722 H163.75790090036392 v119.338 h119.336 V290.8751981992722 zM283.0939009003639,153.53719819927215 H163.75790090036392 v119.338 h119.336 V153.53719819927215 zM283.0939009003639,16.198198199272156 H163.75790090036392 v119.339 h119.336 V16.198198199272156 zM420.43390090036394,16.198198199272156 H301.0939009003639 v119.339 h119.339 V16.198198199272156 zM436.2789009003639,229.88319819927216 c1.3900000000000001,1.629 2.154,3.701 2.154,5.843 v198.521 c0,4.971 -4.029,9 -9,9 H372.70090090036393 c-4.971,0 -9,-4.029 -9,-9 V235.72519819927214 c0,-2.142 0.7640000000000001,-4.214 2.154,-5.843 l28.366,-33.234 c1.71,-2.004 4.212,-3.157 6.846,-3.157 s5.136,1.153 6.846,3.157 L436.2789009003639,229.88319819927216 zM420.43390090036394,406.22419819927217 H381.70090090036393 v19.022 h38.733 V406.22419819927217 zM420.43390090036394,259.43619819927216 H381.70090090036393 v128.788 h38.733 V259.43619819927216 zM420.43390090036394,239.04419819927216 l-19.367,-22.689 L381.70090090036393,239.04419819927216 v2.3930000000000002 h38.733 V239.04419819927216 zM239.69890090036392,236.89319819927215 H190.81090090036392 c-4.971,0 -9,4.029 -9,9 s4.029,9 9,9 h48.888 c13.974,0 25.342,-11.369 25.342,-25.344 c0,-6.223 -2.254,-11.928 -5.9879999999999995,-16.344 c3.734,-4.416 5.9879999999999995,-10.121 5.9879999999999995,-16.344 c0,-13.975 -11.369,-25.344 -25.342,-25.344 H190.81090090036392 c-4.971,0 -9,4.029 -9,9 s4.029,9 9,9 h48.888 c4.048,0 7.3420000000000005,3.295 7.3420000000000005,7.345 c0,4.049 -3.294,7.343 -7.3420000000000005,7.343 h-28.77 c-4.971,0 -9,4.029 -9,9 s4.029,9 9,9 h28.77 c4.048,0 7.3420000000000005,3.295 7.3420000000000005,7.345 C247.0409009003639,233.59919819927217 243.74690090036393,236.89319819927215 239.69890090036392,236.89319819927215 z" class="selected" fill="#ffffff" fill-opacity="1"/><g id="svg_1">
</g><g id="svg_2">
</g><g id="svg_3">
</g><g id="svg_4">
</g><g id="svg_5">
</g><g id="svg_6">
</g><g id="svg_7">
</g><g id="svg_8">
</g><g id="svg_9">
</g><g id="svg_10">
</g><g id="svg_11">
</g><g id="svg_12">
</g><g id="svg_13">
</g><g id="svg_14">
</g><g id="svg_15">
</g></g></svg>